<?xml version="1.0" encoding="iso-8859-1"?>
<!-- Generator: Adobe Illustrator 19.0.0, SVG Export Plug-In . SVG Version: 6.00 Build 0)  -->
<svg version="1.1" id="Layer_1" xmlns="http://www.w3.org/2000/svg" xmlns:xlink="http://www.w3.org/1999/xlink" x="0px" y="0px"
	 viewBox="0 0 512 512" style="enable-background:new 0 0 512 512;" xml:space="preserve">
<g>
	<g>
		<path d="M346.914,371.142l-65.59-124.473l-5.302-10.063c-2.258,0.861-4.252,2.127-6.821,3.76
			c-6.511,4.14-15.428,9.809-31.544,9.809c-16.116,0-25.033-5.669-31.544-9.808c-5.151-3.275-7.989-5.079-15.29-5.079
			c-7.299,0-10.135,1.804-15.285,5.078c-6.51,4.14-15.427,9.809-31.542,9.809s-25.031-5.669-31.541-9.809
			c-2.568-1.633-4.561-2.9-6.819-3.76L0,437.071h381.655L346.914,371.142z"/>
	</g>
</g>
<g>
	<g>
		<path d="M190.827,74.929l-71.032,134.8c3.513,1.641,6.396,3.468,8.913,5.068c5.151,3.274,7.987,5.078,15.286,5.078
			c7.299,0,10.135-1.804,15.285-5.078c6.51-4.14,15.427-9.809,31.542-9.809c16.117,0,25.034,5.669,31.545,9.809
			c5.151,3.274,7.988,5.078,15.289,5.078c7.301,0,10.138-1.804,15.289-5.078c2.517-1.6,5.401-3.427,8.915-5.068L190.827,74.929z"/>
	</g>
</g>
<g>
	<g>
		<path d="M363.621,155.484l-48.049,91.186l8.332,15.813c0.622,0.054,1.31,0.088,2.091,0.088c4.996,0,6.662-1.058,10.682-3.615
			c5.539-3.522,13.125-8.345,26.94-8.345c13.815,0,21.401,4.823,26.942,8.345c4.022,2.557,5.687,3.616,10.685,3.616
			s6.664-1.058,10.685-3.616c1.414-0.899,2.964-1.883,4.714-2.848L363.621,155.484z"/>
	</g>
</g>
<g>
	<g>
		<g>
			<path d="M428.186,284.525c-5.54,3.522-13.127,8.345-26.942,8.345c-13.815,0-21.401-4.823-26.942-8.345
				c-4.022-2.557-5.687-3.616-10.685-3.616c-4.997,0-6.663,1.058-10.683,3.615c-3.48,2.213-7.772,4.938-13.905,6.66l76.874,145.887
				H512l-81.225-154.145C429.996,283.375,429.16,283.904,428.186,284.525z"/>
			<polygon points="512,437.07 512,437.07 512,437.071 			"/>
		</g>
	</g>
</g>
<g>
</g>
<g>
</g>
<g>
</g>
<g>
</g>
<g>
</g>
<g>
</g>
<g>
</g>
<g>
</g>
<g>
</g>
<g>
</g>
<g>
</g>
<g>
</g>
<g>
</g>
<g>
</g>
<g>
</g>
</svg>
